<?xml version="1.0" encoding="UTF-8"?>
<svg version="1.1" xmlns="http://www.w3.org/2000/svg" width="248" height="240">
<path d="M0 0 C3.33076345 1.54432254 5.55642882 0.98262939 8.98828125 -0.078125 C10.24258952 -0.67329567 11.49212718 -1.27856504 12.73828125 -1.890625 C17.46295158 -4.10683634 22.28749974 -5.23075254 27.36328125 -6.328125 C28.14155273 -6.5031958 28.91982422 -6.6782666 29.72167969 -6.85864258 C39.7598884 -8.92858038 49.00010954 -8.30357188 58.92578125 -5.953125 C59.88581055 -5.72866699 60.84583984 -5.50420898 61.83496094 -5.27294922 C80.46820268 -0.6824706 93.51719719 9.92122662 104.98828125 24.921875 C105.52839844 25.62183594 106.06851563 26.32179687 106.625 27.04296875 C117.96935385 42.79405323 120.2976519 61.05101766 117.98828125 79.921875 C117.86324219 81.06914063 117.73820313 82.21640625 117.609375 83.3984375 C116.85685899 89.29653596 115.75264105 93.91281172 112.89453125 99.109375 C111.26895647 102.36052455 110.5933038 105.34765287 110.98828125 108.921875 C111.94101923 111.27278498 111.94101923 111.27278498 113.23828125 113.734375 C115.84806886 118.93214141 116.92655723 123.85169281 117.80078125 129.546875 C117.92420898 130.33425049 118.04763672 131.12162598 118.17480469 131.93286133 C121.15071029 152.84928878 116.3639173 172.77010713 103.7265625 189.72265625 C103.15292969 190.44839844 102.57929688 191.17414063 101.98828125 191.921875 C101.44558594 192.61667969 100.90289062 193.31148437 100.34375 194.02734375 C95.8556904 199.46136439 90.64377742 203.74564736 84.98828125 207.921875 C84.37597656 208.38464844 83.76367188 208.84742188 83.1328125 209.32421875 C78.76010062 212.34554065 73.98179787 214.26166135 69.05078125 216.171875 C68.3944873 216.43049316 67.73819336 216.68911133 67.06201172 216.95556641 C58.88065797 219.98592205 50.62745154 220.08674809 41.98828125 220.046875 C40.73144531 220.05267578 40.73144531 220.05267578 39.44921875 220.05859375 C31.84562694 220.04682348 24.47108873 219.26494301 16.98828125 217.921875 C16.98828125 217.261875 16.98828125 216.601875 16.98828125 215.921875 C15.40530099 215.4415432 13.82188147 214.96265888 12.23828125 214.484375 C11.3565625 214.21753906 10.47484375 213.95070312 9.56640625 213.67578125 C8.715625 213.42699219 7.86484375 213.17820313 6.98828125 212.921875 C6.34246094 212.67695313 5.69664063 212.43203125 5.03125 212.1796875 C1.93344824 211.78876032 -0.1305907 212.97256799 -2.94921875 214.234375 C-4.47869141 214.90919922 -4.47869141 214.90919922 -6.0390625 215.59765625 C-7.02003906 216.03464844 -8.00101562 216.47164062 -9.01171875 216.921875 C-24.51811441 223.60048654 -47.42363907 221.1118539 -62.69921875 215.171875 C-82.09998293 207.20627282 -95.64658 191.69234992 -104.69140625 173.10546875 C-107.98535381 165.16296205 -109.49938881 156.48739115 -110.01171875 147.921875 C-110.05296875 147.24253906 -110.09421875 146.56320313 -110.13671875 145.86328125 C-110.45219057 135.11752235 -109.1244638 122.20220009 -103.75390625 112.6953125 C-102.45423455 110.38206035 -101.53153807 108.52970808 -101.01171875 105.921875 C-101.87422743 103.00364615 -103.14157945 100.54440238 -104.5625 97.85546875 C-112.62257828 81.53978468 -111.07180595 59.59000592 -106.04296875 42.66796875 C-101.44274883 30.4181407 -93.68600033 19.67479643 -84.01171875 10.921875 C-83.35171875 10.921875 -82.69171875 10.921875 -82.01171875 10.921875 C-82.01171875 10.261875 -82.01171875 9.601875 -82.01171875 8.921875 C-77.88648531 5.90341151 -73.48479398 3.38977857 -69.01171875 0.921875 C-67.89796875 0.261875 -66.78421875 -0.398125 -65.63671875 -1.078125 C-58.96100831 -4.40939668 -51.26336394 -5.54830237 -44.01171875 -7.078125 C-43.12097656 -7.2740625 -42.23023437 -7.47 -41.3125 -7.671875 C-27.67283077 -10.08023765 -11.96181737 -6.69365946 0 0 Z M-32.01171875 69.921875 C-32.01171875 94.341875 -32.01171875 118.761875 -32.01171875 143.921875 C-7.59171875 143.921875 16.82828125 143.921875 41.98828125 143.921875 C42.00890625 132.454375 42.02953125 120.986875 42.05078125 109.171875 C42.05988525 105.55379883 42.06898926 101.93572266 42.07836914 98.20800781 C42.08171401 94.95883226 42.08171401 94.95883226 42.08372498 91.70965576 C42.08525843 90.26482841 42.08877108 88.82000232 42.09385681 87.37518311 C42.1011827 85.18401879 42.10218702 82.99293255 42.10180664 80.80175781 C42.10402725 79.56709778 42.10624786 78.33243774 42.10853577 77.06036377 C42.08892935 73.74303054 42.08892935 73.74303054 40.98828125 69.921875 C16.89828125 69.921875 -7.19171875 69.921875 -32.01171875 69.921875 Z " fill="#263E7A" transform="translate(120.01171875,13.078125)"/>
<path d="M0 0 C1.98807601 1.6519279 2.26510527 2.82582858 2.6171875 5.34375 C1.7096875 5.900625 0.8021875 6.4575 -0.1328125 7.03125 C-3.26176582 9.25762063 -5.02103462 11.37248105 -7.3828125 14.34375 C-8.56230469 15.03017578 -8.56230469 15.03017578 -9.765625 15.73046875 C-20.00185394 22.04026361 -27.86316522 38.1620712 -30.8671875 49.5234375 C-31.85121466 54.90576789 -32.40784319 60.33956013 -32.953125 65.78125 C-33.3828125 69.34375 -33.3828125 69.34375 -34.3828125 71.34375 C-35.0428125 71.34375 -35.7028125 71.34375 -36.3828125 71.34375 C-36.6509375 71.900625 -36.9190625 72.4575 -37.1953125 73.03125 C-38.3828125 75.34375 -38.3828125 75.34375 -39.9453125 77.71875 C-41.5386792 80.62837614 -42.00197549 83.06855174 -42.3828125 86.34375 C-40.0728125 84.69375 -37.7628125 83.04375 -35.3828125 81.34375 C-35.33652195 89.1322135 -35.30096008 96.92064492 -35.27918816 104.70921135 C-35.26874001 108.32555873 -35.25456218 111.94181216 -35.23193359 115.55810547 C-35.2102417 119.04643811 -35.19825165 122.53468024 -35.19305801 126.0230751 C-35.18755081 128.00514971 -35.17193216 129.98718779 -35.15621948 131.96920776 C-35.15606842 133.17030182 -35.15591736 134.37139587 -35.15576172 135.60888672 C-35.1513205 136.67033905 -35.14687927 137.73179138 -35.14230347 138.82540894 C-35.3828125 141.34375 -35.3828125 141.34375 -37.3828125 143.34375 C-38.6821875 142.9415625 -38.6821875 142.9415625 -40.0078125 142.53125 C-46.04732592 140.79317057 -52.23374572 139.6230288 -58.3828125 138.34375 C-58.8778125 134.87875 -58.8778125 134.87875 -59.3828125 131.34375 C-60.3728125 131.67375 -61.3628125 132.00375 -62.3828125 132.34375 C-63.11605046 134.35883358 -63.11605046 134.35883358 -63.3828125 136.34375 C-64.0428125 136.34375 -64.7028125 136.34375 -65.3828125 136.34375 C-65.970625 135.3846875 -65.970625 135.3846875 -66.5703125 134.40625 C-69.16448685 131.45425849 -71.5841556 131.63044109 -75.3828125 131.34375 C-63.75994099 138.79914146 -52.8199927 142.53284043 -39.1184082 143.57348633 C-35.00368201 143.92984197 -32.34670809 144.37985441 -29.3828125 147.34375 C-28.7228125 148.33375 -28.0628125 149.32375 -27.3828125 150.34375 C-25.39996764 151.06906282 -25.39996764 151.06906282 -23.1328125 151.40625 C-19.42355316 152.11933863 -15.94603068 153.06464604 -12.3828125 154.34375 C-14.00647716 151.09642068 -17.13669089 150.64219864 -20.3828125 149.34375 C-20.3828125 148.35375 -20.3828125 147.36375 -20.3828125 146.34375 C-0.5828125 146.34375 19.2171875 146.34375 39.6171875 146.34375 C38.45647321 163.75446429 38.45647321 163.75446429 33.6171875 171.34375 C32.6271875 171.34375 31.6371875 171.34375 30.6171875 171.34375 C30.8646875 172.519375 31.1121875 173.695 31.3671875 174.90625 C32.02977489 179.86240367 30.39046451 182.30989253 27.6171875 186.34375 C31.2304821 183.17033475 32.9402453 179.97316409 34.8671875 175.59375 C35.38796875 174.42328125 35.90875 173.2528125 36.4453125 172.046875 C36.83203125 171.15484375 37.21875 170.2628125 37.6171875 169.34375 C38.2771875 169.34375 38.9371875 169.34375 39.6171875 169.34375 C39.07322577 171.70091748 38.41330023 173.92992591 37.6171875 176.21875 C36.50785608 179.30791024 36.50785608 179.30791024 36.3046875 182.53125 C35.6171875 185.34375 35.6171875 185.34375 33.3046875 186.78125 C31.974375 187.5546875 31.974375 187.5546875 30.6171875 188.34375 C29.59483224 190.0689745 28.57560749 191.7980693 27.64453125 193.57421875 C25.06145288 198.02339936 20.72403503 201.34686126 16.6171875 204.34375 C15.9571875 204.34375 15.2971875 204.34375 14.6171875 204.34375 C13.9571875 205.66375 13.2971875 206.98375 12.6171875 208.34375 C11.6271875 208.34375 10.6371875 208.34375 9.6171875 208.34375 C9.6171875 209.33375 9.6171875 210.32375 9.6171875 211.34375 C8.2971875 211.01375 6.9771875 210.68375 5.6171875 210.34375 C6.89070058 206.52321076 8.24356275 206.11353625 11.6796875 204.15625 C12.59878906 203.62644531 13.51789063 203.09664062 14.46484375 202.55078125 C15.53025391 201.95330078 15.53025391 201.95330078 16.6171875 201.34375 C13.87869506 202.39878059 11.44900848 203.44543964 8.9296875 204.96875 C6.6171875 206.34375 6.6171875 206.34375 4.6171875 206.34375 C4.6171875 205.68375 4.6171875 205.02375 4.6171875 204.34375 C2.3071875 204.34375 -0.0028125 204.34375 -2.3828125 204.34375 C-2.3828125 205.00375 -2.3828125 205.66375 -2.3828125 206.34375 C-1.0628125 206.01375 0.2571875 205.68375 1.6171875 205.34375 C1.6171875 206.00375 1.6171875 206.66375 1.6171875 207.34375 C0.9571875 207.34375 0.2971875 207.34375 -0.3828125 207.34375 C-0.7128125 208.33375 -1.0428125 209.32375 -1.3828125 210.34375 C-2.0428125 210.34375 -2.7028125 210.34375 -3.3828125 210.34375 C-3.3828125 211.33375 -3.3828125 212.32375 -3.3828125 213.34375 C-12.81506649 217.83665854 -20.56392139 219.09717599 -30.85839844 218.88574219 C-33.01329602 218.84364287 -35.1650692 218.84471735 -37.3203125 218.8515625 C-45.36989686 218.81281267 -52.72150127 218.01672815 -60.3828125 215.34375 C-60.3828125 214.35375 -60.3828125 213.36375 -60.3828125 212.34375 C-61.3315625 212.034375 -62.2803125 211.725 -63.2578125 211.40625 C-66.3828125 210.34375 -66.3828125 210.34375 -68.3828125 209.34375 C-68.3828125 208.35375 -68.3828125 207.36375 -68.3828125 206.34375 C-68.98609375 206.43914062 -69.589375 206.53453125 -70.2109375 206.6328125 C-71.01015625 206.74367187 -71.809375 206.85453125 -72.6328125 206.96875 C-73.42171875 207.08476562 -74.210625 207.20078125 -75.0234375 207.3203125 C-79.03708474 207.36018317 -80.96969728 205.73567982 -83.8203125 203.03125 C-84.6659375 202.144375 -85.5115625 201.2575 -86.3828125 200.34375 C-87.1459375 199.6425 -87.9090625 198.94125 -88.6953125 198.21875 C-101.75511765 184.24779565 -109.24168049 167.42205082 -110.3828125 148.34375 C-110.4240625 147.66441406 -110.4653125 146.98507813 -110.5078125 146.28515625 C-110.82328432 135.53939735 -109.49555755 122.62407509 -104.125 113.1171875 C-102.8253283 110.80393535 -101.90263182 108.95158308 -101.3828125 106.34375 C-102.24532118 103.42552115 -103.5126732 100.96627738 -104.93359375 98.27734375 C-112.99367203 81.96165968 -111.4428997 60.01188092 -106.4140625 43.08984375 C-101.81384258 30.8400157 -94.05709408 20.09667143 -84.3828125 11.34375 C-83.7228125 11.34375 -83.0628125 11.34375 -82.3828125 11.34375 C-82.3828125 10.68375 -82.3828125 10.02375 -82.3828125 9.34375 C-78.25757906 6.32528651 -73.85588773 3.81165357 -69.3828125 1.34375 C-68.2690625 0.68375 -67.1553125 0.02375 -66.0078125 -0.65625 C-59.33210206 -3.98752168 -51.63445769 -5.12642737 -44.3828125 -6.65625 C-43.49207031 -6.8521875 -42.60132812 -7.048125 -41.68359375 -7.25 C-28.17702216 -9.63486154 -12.11100304 -6.20217457 0 0 Z " fill="#263D79" transform="translate(120.3828125,12.65625)"/>
<path d="M0 0 C0.9600293 0.22445801 1.92005859 0.44891602 2.90917969 0.68017578 C21.54242143 5.2706544 34.59141594 15.87435162 46.0625 30.875 C46.60261719 31.57496094 47.14273438 32.27492187 47.69921875 32.99609375 C61.53548074 52.20707169 60.99404248 73.66410026 57.66015625 96.1328125 C57.10290953 98.68959159 56.35478905 100.61484594 55.0625 102.875 C54.4025 102.875 53.7425 102.875 53.0625 102.875 C52.7325 103.865 52.4025 104.855 52.0625 105.875 C51.4025 105.875 50.7425 105.875 50.0625 105.875 C50.0625 107.855 50.0625 109.835 50.0625 111.875 C49.4025 111.875 48.7425 111.875 48.0625 111.875 C46.73046875 110.08203125 46.73046875 110.08203125 45.25 107.6875 C43.41403182 104.81851778 41.66430944 102.28023713 39.1875 99.9375 C38.48625 99.256875 37.785 98.57625 37.0625 97.875 C37.0625 97.215 37.0625 96.555 37.0625 95.875 C36.4953125 95.62234375 35.928125 95.3696875 35.34375 95.109375 C32.7646979 93.71386051 30.78517886 92.03650382 28.5625 90.125 C16.15545331 80.17050905 0.77470956 75.56758849 -15.08984375 75.34375 C-17.73763264 74.67200652 -18.42226915 73.06831759 -19.9375 70.875 C-22.52248512 69.60652315 -22.52248512 69.60652315 -24.9375 68.875 C-24.9375 68.215 -24.9375 67.555 -24.9375 66.875 C-27.2475 66.875 -29.5575 66.875 -31.9375 66.875 C-30.9475 67.37 -30.9475 67.37 -29.9375 67.875 C-29.9375 68.865 -29.9375 69.855 -29.9375 70.875 C-28.2875 71.205 -26.6375 71.535 -24.9375 71.875 C-24.9375 72.205 -24.9375 72.535 -24.9375 72.875 C-45.7275 72.875 -66.5175 72.875 -87.9375 72.875 C-90.50782949 66.44917627 -89.75676162 62.43371143 -87.9375 55.875 C-86.52877677 52.60706752 -84.97539983 49.4973437 -83.27734375 46.37109375 C-81.83754451 43.85855508 -81.83754451 43.85855508 -80.9375 40.875 C-79.9475 40.875 -78.9575 40.875 -77.9375 40.875 C-77.999375 39.781875 -78.06125 38.68875 -78.125 37.5625 C-77.9375 33.875 -77.9375 33.875 -76.5625 31.9375 C-74.9375 30.875 -74.9375 30.875 -72.9375 30.875 C-72.6075 29.885 -72.2775 28.895 -71.9375 27.875 C-71.2775 27.875 -70.6175 27.875 -69.9375 27.875 C-69.710625 27.09125 -69.48375 26.3075 -69.25 25.5 C-67.59663521 22.19327043 -66.27137661 22.15726023 -62.9375 20.875 C-62.19473969 18.90419843 -62.19473969 18.90419843 -61.9375 16.875 C-59.81325521 14.75075521 -58.85405957 14.44666659 -56.0625 13.625 C-51.69898376 12.09698168 -50.33480203 9.81342476 -47.9375 5.875 C-45.6875 5 -45.6875 5 -43.9375 4.875 C-43.9375 4.215 -43.9375 3.555 -43.9375 2.875 C-41.39656145 2.22618552 -38.85481727 1.58087101 -36.3125 0.9375 C-35.59964844 0.75509766 -34.88679688 0.57269531 -34.15234375 0.38476562 C-22.34226751 -2.59484077 -11.889435 -2.81547549 0 0 Z " fill="#263E7A" transform="translate(178.9375,7.125)"/>
<path d="M0 0 C0.99 0.33 1.98 0.66 3 1 C2.13375 1.2784375 2.13375 1.2784375 1.25 1.5625 C-1.20129324 3.12860401 -1.69891286 4.04293442 -3 6.5625 C-5 10 -5 10 -6.9375 10.8125 C-7.618125 10.874375 -8.29875 10.93625 -9 11 C-11.65245602 11.66096786 -11.65245602 11.66096786 -14 13 C-14.33 13.825 -14.66 14.65 -15 15.5 C-15.33 16.325 -15.66 17.15 -16 18 C-17.65204456 18.70211894 -19.31923769 19.36971413 -21 20 C-21.46019531 20.93199219 -21.46019531 20.93199219 -21.9296875 21.8828125 C-23.1666484 24.32964757 -24.41391953 25.23380674 -26.625 26.8125 C-28.53561734 28.27776244 -28.53561734 28.27776244 -30 30 C-30.41771804 33.66799815 -30.41771804 33.66799815 -30 37 C-30.66 37.66 -31.32 38.32 -32 39 C-32.33 38.67 -32.66 38.34 -33 38 C-37.89566776 46.1852469 -42.414177 55.17808817 -42 65 C-41.01 66.485 -41.01 66.485 -40 68 C-37.37497899 68.4394469 -37.37497899 68.4394469 -34.26513672 68.34057617 C-33.06404266 68.34034958 -31.86294861 68.34012299 -30.62545776 68.33988953 C-29.32335358 68.32440567 -28.02124939 68.30892181 -26.6796875 68.29296875 C-25.33733595 68.28737416 -23.99497827 68.28310341 -22.65261841 68.28010559 C-19.11789059 68.26864585 -15.58353202 68.23916959 -12.0489502 68.20599365 C-8.44284053 68.17531671 -4.83667126 68.16160538 -1.23046875 68.14648438 C5.84650532 68.11430052 12.92322857 68.06309094 20 68 C18.515 67.505 18.515 67.505 17 67 C17 66.01 17 65.02 17 64 C15.515 63.505 15.515 63.505 14 63 C17.04095325 62.02255074 18.99632687 61.83728782 22 63 C23 64 24 65 25 66 C25.70125 66.165 26.4025 66.33 27.125 66.5 C27.74375 66.665 28.3625 66.83 29 67 C29.33 67.99 29.66 68.98 30 70 C30.57854736 70.06993164 31.15709473 70.13986328 31.75317383 70.21191406 C45.80468353 71.95105226 59.02706358 73.81385278 71 82 C71.33 82.66 71.66 83.32 72 84 C70.02 84 68.04 84 66 84 C66 83.34 66 82.68 66 82 C64.68 82 63.36 82 62 82 C61.67 81.34 61.34 80.68 61 80 C56.75707578 78.38364792 52.37039815 77.22311484 48 76 C46.68708984 75.61714844 46.68708984 75.61714844 45.34765625 75.2265625 C44.59355469 75.02804688 43.83945313 74.82953125 43.0625 74.625 C42.41410156 74.45226562 41.76570312 74.27953125 41.09765625 74.1015625 C38.27919789 73.83833788 38.27919789 73.83833788 33 76 C33 96.13 33 116.26 33 137 C35.31 133.04 37.62 129.08 40 125 C40.66 124.67 41.32 124.34 42 124 C41.84023273 131.21857585 40.85969358 135.54766087 36 141 C35.34 141 34.68 141 34 141 C33.814375 141.9590625 33.814375 141.9590625 33.625 142.9375 C33.315625 143.9584375 33.315625 143.9584375 33 145 C32.34 145.33 31.68 145.66 31 146 C30.64649885 148.74038923 30.39378669 151.43552407 30.1875 154.1875 C29.04545296 166.33078499 25.6799055 178.22557482 18 188 C17.34 188 16.68 188 16 188 C16.61277612 185.03824877 17.25372522 183.61941217 19 181 C19.24055468 178.94290404 19.24055468 178.94290404 19.125 176.8125 C19.08375 175.554375 19.0425 174.29625 19 173 C19.99 173 20.98 173 22 173 C22.20496094 172.36191406 22.40992188 171.72382813 22.62109375 171.06640625 C22.89050781 170.24011719 23.15992188 169.41382813 23.4375 168.5625 C23.70433594 167.73878906 23.97117187 166.91507813 24.24609375 166.06640625 C25 164 25 164 26 163 C26.23527773 160.65012738 26.41386417 158.29443961 26.5625 155.9375 C26.68818359 154.00197266 26.68818359 154.00197266 26.81640625 152.02734375 C26.87699219 151.02832031 26.93757813 150.02929688 27 149 C26.3935817 149.00222061 25.78716339 149.00444122 25.16236877 149.00672913 C18.81894523 149.02894849 12.47553286 149.04397576 6.13208008 149.05493164 C3.76846873 149.05994306 1.40486046 149.06675396 -0.95874023 149.07543945 C-4.36703248 149.08764526 -7.77528354 149.09326037 -11.18359375 149.09765625 C-12.23083115 149.10281754 -13.27806854 149.10797882 -14.35704041 149.11329651 C-20.3233587 149.11374699 -26.08321863 148.77689678 -32 148 C-32 148.99 -32 149.98 -32 151 C-30.865625 151.268125 -29.73125 151.53625 -28.5625 151.8125 C-26.7990625 152.4003125 -26.7990625 152.4003125 -25 153 C-24.67 153.99 -24.34 154.98 -24 156 C-28.66859837 156.42441803 -31.78185654 154.88309976 -36 153 C-36.928125 152.855625 -37.85625 152.71125 -38.8125 152.5625 C-41 152 -41 152 -42.1875 150 C-42.455625 149.34 -42.72375 148.68 -43 148 C-45.48422482 146.75788759 -47.8243754 146.66562725 -50.55981445 146.40551758 C-64.04126071 145.10076722 -75.73640995 141.88451303 -87 134 C-87.33 133.34 -87.66 132.68 -88 132 C-86.68 132 -85.36 132 -84 132 C-84 132.66 -84 133.32 -84 134 C-83.2575 133.7525 -82.515 133.505 -81.75 133.25 C-80.8425 133.1675 -79.935 133.085 -79 133 C-76.6875 134.9375 -76.6875 134.9375 -75 137 C-74.505 135.02 -74.505 135.02 -74 133 C-72.68 133 -71.36 133 -70 133 C-70 135.31 -70 137.62 -70 140 C-68.1128125 140.185625 -68.1128125 140.185625 -66.1875 140.375 C-61.5048869 140.88785763 -56.90909765 141.70668583 -52.28515625 142.59765625 C-50.0584339 143.05780039 -50.0584339 143.05780039 -48 143 C-48 123.53 -48 104.06 -48 84 C-49.98 85.65 -51.96 87.3 -54 89 C-54.625 87.1875 -54.625 87.1875 -55 85 C-54.01 83.515 -54.01 83.515 -53 82 C-52.87625 81.38125 -52.7525 80.7625 -52.625 80.125 C-51.74459392 77.13161933 -50.08832428 75.27817194 -48 73 C-47.34 73 -46.68 73 -46 73 C-45.96261719 72.12859375 -45.92523438 71.2571875 -45.88671875 70.359375 C-44.75745095 49.89969956 -37.2794839 30.28367232 -22 16 C-21.195625 15.525625 -20.39125 15.05125 -19.5625 14.5625 C-16.57558007 12.74120736 -14.43269605 10.49844459 -12 8 C-11.34 7.67 -10.68 7.34 -10 7 C-10 6.01 -10 5.02 -10 4 C-8.906875 3.71125 -7.81375 3.4225 -6.6875 3.125 C-2.95986155 2.18106796 -2.95986155 2.18106796 0 0 Z M-44 72 C-44 96.42 -44 120.84 -44 146 C-19.58 146 4.84 146 30 146 C30.020625 134.5325 30.04125 123.065 30.0625 111.25 C30.071604 107.63192383 30.08070801 104.01384766 30.09008789 100.28613281 C30.09343276 97.03695726 30.09343276 97.03695726 30.09544373 93.78778076 C30.09697718 92.34295341 30.10048983 90.89812732 30.10557556 89.45330811 C30.11290145 87.26214379 30.11390577 85.07105755 30.11352539 82.87988281 C30.115746 81.64522278 30.11796661 80.41056274 30.12025452 79.13848877 C30.1006481 75.82115554 30.1006481 75.82115554 29 72 C4.91 72 -19.18 72 -44 72 Z " fill="#B3C7F1" transform="translate(132,11)"/>
<path d="M0 0 C0.99 0.33 1.98 0.66 3 1 C2.13375 1.2784375 2.13375 1.2784375 1.25 1.5625 C-1.20129324 3.12860401 -1.69891286 4.04293442 -3 6.5625 C-5 10 -5 10 -6.9375 10.8125 C-7.618125 10.874375 -8.29875 10.93625 -9 11 C-11.65245602 11.66096786 -11.65245602 11.66096786 -14 13 C-14.33 13.825 -14.66 14.65 -15 15.5 C-15.33 16.325 -15.66 17.15 -16 18 C-17.65204456 18.70211894 -19.31923769 19.36971413 -21 20 C-21.30679688 20.62132813 -21.61359375 21.24265625 -21.9296875 21.8828125 C-23.1666484 24.32964757 -24.41391953 25.23380674 -26.625 26.8125 C-28.53561734 28.27776244 -28.53561734 28.27776244 -30 30 C-30.41771804 33.66799815 -30.41771804 33.66799815 -30 37 C-30.66 37.66 -31.32 38.32 -32 39 C-32.33 38.67 -32.66 38.34 -33 38 C-37.89566776 46.1852469 -42.414177 55.17808817 -42 65 C-41.34 65.99 -40.68 66.98 -40 68 C-37.37497899 68.4394469 -37.37497899 68.4394469 -34.26513672 68.34057617 C-33.06404266 68.34034958 -31.86294861 68.34012299 -30.62545776 68.33988953 C-29.32335358 68.32440567 -28.02124939 68.30892181 -26.6796875 68.29296875 C-25.33733595 68.28737416 -23.99497827 68.28310341 -22.65261841 68.28010559 C-19.11789059 68.26864585 -15.58353202 68.23916959 -12.0489502 68.20599365 C-8.44284053 68.17531671 -4.83667126 68.16160538 -1.23046875 68.14648438 C5.84650532 68.11430052 12.92322857 68.06309094 20 68 C18.515 67.505 18.515 67.505 17 67 C17 66.01 17 65.02 17 64 C16.01 63.67 15.02 63.34 14 63 C17.04095325 62.02255074 18.99632687 61.83728782 22 63 C23 64 24 65 25 66 C27.10332891 66.71447643 27.10332891 66.71447643 29 67 C29.33 68.32 29.66 69.64 30 71 C5.25 71 -19.5 71 -45 71 C-45 50.49203922 -38.10917542 32.83618032 -23.91796875 17.79296875 C-22 16 -22 16 -19.5625 14.5625 C-16.57558007 12.74120736 -14.43269605 10.49844459 -12 8 C-11.34 7.67 -10.68 7.34 -10 7 C-10 6.01 -10 5.02 -10 4 C-8.906875 3.71125 -7.81375 3.4225 -6.6875 3.125 C-2.95986155 2.18106796 -2.95986155 2.18106796 0 0 Z " fill="#4C6FD6" transform="translate(132,11)"/>
<path d="M0 0 C0.33 0 0.66 0 1 0 C1 24.75 1 49.5 1 75 C-14.41647703 75 -26.92760018 72.06037814 -40 64 C-40.66 63.01 -41.32 62.02 -42 61 C-40.68 61 -39.36 61 -38 61 C-38 61.66 -38 62.32 -38 63 C-37.2575 62.7525 -36.515 62.505 -35.75 62.25 C-34.8425 62.1675 -33.935 62.085 -33 62 C-30.6875 63.9375 -30.6875 63.9375 -29 66 C-28.67 64.68 -28.34 63.36 -28 62 C-26.68 62 -25.36 62 -24 62 C-24 64.31 -24 66.62 -24 69 C-22.1128125 69.185625 -22.1128125 69.185625 -20.1875 69.375 C-15.5048869 69.88785763 -10.90909765 70.70668583 -6.28515625 71.59765625 C-4.0584339 72.05780039 -4.0584339 72.05780039 -2 72 C-2 52.53 -2 33.06 -2 13 C-3.98 14.65 -5.96 16.3 -8 18 C-8.625 16.1875 -8.625 16.1875 -9 14 C-8.34 13.01 -7.68 12.02 -7 11 C-6.814375 10.071875 -6.814375 10.071875 -6.625 9.125 C-5.74459392 6.13161933 -4.08832428 4.27817194 -2 2 C-1.34 2 -0.68 2 0 2 C0 1.34 0 0.68 0 0 Z " fill="#6883D7" transform="translate(86,82)"/>
<path d="M0 0 C6.78404418 0 12.3606365 0.10319271 18.8125 1.5625 C19.58005615 1.73378418 20.3476123 1.90506836 21.13842773 2.08154297 C28.40959517 3.8507166 34.81903612 6.75385561 41 11 C41.495 11.99 41.495 11.99 42 13 C40.02 13 38.04 13 36 13 C36 12.34 36 11.68 36 11 C34.68 11 33.36 11 32 11 C31.67 10.34 31.34 9.68 31 9 C26.75707578 7.38364792 22.37039815 6.22311484 18 5 C16.68708984 4.61714844 16.68708984 4.61714844 15.34765625 4.2265625 C14.59355469 4.02804688 13.83945313 3.82953125 13.0625 3.625 C12.41410156 3.45226562 11.76570312 3.27953125 11.09765625 3.1015625 C8.27919789 2.83833788 8.27919789 2.83833788 3 5 C3 25.13 3 45.26 3 66 C5.31 62.04 7.62 58.08 10 54 C10.99 53.505 10.99 53.505 12 53 C11.84023273 60.21857585 10.85969358 64.54766087 6 70 C5.34 70 4.68 70 4 70 C3.896875 70.639375 3.79375 71.27875 3.6875 71.9375 C3.460625 72.618125 3.23375 73.29875 3 74 C1.515 74.495 1.515 74.495 0 75 C0 50.25 0 25.5 0 0 Z " fill="#6887DC" transform="translate(162,82)"/>
<path d="M0 0 C-0.7940625 0.48210937 -1.588125 0.96421875 -2.40625 1.4609375 C-3.93765625 2.40839844 -3.93765625 2.40839844 -5.5 3.375 C-7.03140625 4.31472656 -7.03140625 4.31472656 -8.59375 5.2734375 C-9.3878125 5.84320313 -10.181875 6.41296875 -11 7 C-11 7.66 -11 8.32 -11 9 C-9.0399719 10.63676257 -9.0399719 10.63676257 -7 12 C-8.0725 11.731875 -9.145 11.46375 -10.25 11.1875 C-16.43882588 10.37114864 -21.53274733 13.44358806 -27 16 C-43.58125794 23.18438312 -66.6059035 19.70821312 -82.83886719 13.38427734 C-86.74423436 11.76597899 -89.91178099 9.89483907 -93 7 C-93 6.34 -93 5.68 -93 5 C-90.69 5 -88.38 5 -86 5 C-86 5.99 -86 6.98 -86 8 C-83.03 8.99 -80.06 9.98 -77 11 C-77.33 11.66 -77.66 12.32 -78 13 C-69.57768389 15.95569248 -61.50106717 16.49880446 -52.67529297 16.44604492 C-50.50262253 16.4375103 -48.33257052 16.46643832 -46.16015625 16.49804688 C-38.58595916 16.53397166 -32.08054751 15.91412453 -25.02148438 12.85961914 C-23 12 -23 12 -21 12 C-21 11.01 -21 10.02 -21 9 C-19.5625 7.375 -19.5625 7.375 -18 6 C-17.67 5.67 -17.34 5.34 -17 5 C-17.99 5 -18.98 5 -20 5 C-20 4.34 -20 3.68 -20 3 C-17.69 3 -15.38 3 -13 3 C-13 3.66 -13 4.32 -13 5 C-12.31292969 4.55527344 -11.62585938 4.11054688 -10.91796875 3.65234375 C-10.01691406 3.08644531 -9.11585938 2.52054688 -8.1875 1.9375 C-7.29417969 1.36902344 -6.40085937 0.80054688 -5.48046875 0.21484375 C-3 -1 -3 -1 0 0 Z " fill="#7989B2" transform="translate(138,214)"/>
<path d="M0 0 C0.99 0.33 1.98 0.66 3 1 C2.13375 1.2784375 2.13375 1.2784375 1.25 1.5625 C-1.20129324 3.12860401 -1.69891286 4.04293442 -3 6.5625 C-5 10 -5 10 -6.9375 10.8125 C-7.618125 10.874375 -8.29875 10.93625 -9 11 C-11.65245602 11.66096786 -11.65245602 11.66096786 -14 13 C-14.33 13.825 -14.66 14.65 -15 15.5 C-15.33 16.325 -15.66 17.15 -16 18 C-17.65204456 18.70211894 -19.31923769 19.36971413 -21 20 C-21.30679688 20.62132813 -21.61359375 21.24265625 -21.9296875 21.8828125 C-23.1666484 24.32964757 -24.41391953 25.23380674 -26.625 26.8125 C-28.53561734 28.27776244 -28.53561734 28.27776244 -30 30 C-30.41771804 33.66799815 -30.41771804 33.66799815 -30 37 C-30.66 37.66 -31.32 38.32 -32 39 C-32.33 38.67 -32.66 38.34 -33 38 C-36.4821006 43.82185199 -39.10463724 49.48180123 -41 56 C-41.33 56 -41.66 56 -42 56 C-41.59788918 50.47097629 -40.5030409 46.33501383 -38.03515625 41.37109375 C-36.87230106 38.88396854 -36.87230106 38.88396854 -36.14453125 35.609375 C-34.87901539 31.61846492 -33.18889098 29.10467231 -30.625 25.8125 C-29.85414062 24.80832031 -29.08328125 23.80414063 -28.2890625 22.76953125 C-25.61320278 19.53201497 -23.19331372 16.70374912 -19.5625 14.5625 C-16.57558007 12.74120736 -14.43269605 10.49844459 -12 8 C-11.34 7.67 -10.68 7.34 -10 7 C-10 6.01 -10 5.02 -10 4 C-8.906875 3.71125 -7.81375 3.4225 -6.6875 3.125 C-2.95986155 2.18106796 -2.95986155 2.18106796 0 0 Z " fill="#3954A1" transform="translate(132,11)"/>
<path d="M0 0 C3.37833263 4.5044435 3.37833263 4.5044435 3.94921875 8.23046875 C4.07490234 9.03419922 4.20058594 9.83792969 4.33007812 10.66601562 C4.44802734 11.49810547 4.56597656 12.33019531 4.6875 13.1875 C4.88182617 14.40663086 4.88182617 14.40663086 5.08007812 15.65039062 C7.6932955 33.03036018 5.0737035 50.82614402 -4 66 C-4.99 66.495 -4.99 66.495 -6 67 C-6.495 64.525 -6.495 64.525 -7 62 C-5.02 61.505 -5.02 61.505 -3 61 C-3.33 59.68 -3.66 58.36 -4 57 C-3.34 57 -2.68 57 -2 57 C-2.061875 55.081875 -2.061875 55.081875 -2.125 53.125 C-2.1953125 50.9453125 -2.1953125 50.9453125 -2 49 C-1.34 48.34 -0.68 47.68 0 47 C2.85797949 35.65629129 2.83702687 23.49244007 1 12 C0.01 12.495 0.01 12.495 -1 13 C-0.67 8.71 -0.34 4.42 0 0 Z " fill="#596689" transform="translate(233,129)"/>
<path d="M0 0 C1.98136116 1.78322505 3.33421782 3.5070891 4.8125 5.75 C9.60738773 12.87383321 15.07142994 17.93444544 22 23 C21.67 23.66 21.34 24.32 21 25 C19.68 25 18.36 25 17 25 C17 23.68 17 22.36 17 21 C14.69 21.33 12.38 21.66 10 22 C9.87625 21.4225 9.7525 20.845 9.625 20.25 C9.07474322 17.97341328 9.07474322 17.97341328 7.9375 15.9375 C7 14 7 14 7 11 C6.34 11.66 5.68 12.32 5 13 C4.01 13.495 4.01 13.495 3 14 C2.67 12.02 2.34 10.04 2 8 C1.21625 8.825 0.4325 9.65 -0.375 10.5 C-3 13 -3 13 -5 13 C-4.48474397 7.71862571 -2.74522883 4.42778844 0 0 Z " fill="#041432" transform="translate(21,120)"/>
<path d="M0 0 C1.2931497 3.87944909 0.37679502 4.76494727 -1.375 8.375 C-4.25895801 14.90984115 -4.87427116 20.9134656 -5 28 C-5.66 28 -6.32 28 -7 28 C-7 29.98 -7 31.96 -7 34 C16.76 34 40.52 34 65 34 C65 34.33 65 34.66 65 35 C40.91 35 16.82 35 -8 35 C-8 21.24402536 -6.04455817 12.1368994 0 0 Z " fill="#6A83C6" transform="translate(95,47)"/>
<path d="M0 0 C0.66 0 1.32 0 2 0 C1.45603827 2.35716748 0.79611273 4.58617591 0 6.875 C-1.10933142 9.96416024 -1.10933142 9.96416024 -1.3125 13.1875 C-2 16 -2 16 -4.3125 17.4375 C-5.199375 17.953125 -6.08625 18.46875 -7 19 C-8.02235526 20.7252245 -9.04158001 22.4543193 -9.97265625 24.23046875 C-12.55573462 28.67964936 -16.89315247 32.00311126 -21 35 C-21.66 35 -22.32 35 -23 35 C-23.66 36.32 -24.32 37.64 -25 39 C-25.99 39 -26.98 39 -28 39 C-28 39.99 -28 40.98 -28 42 C-29.32 41.67 -30.64 41.34 -32 41 C-30.72484203 37.17452608 -29.52900655 36.97321119 -26.0625 35.0625 C-13.73718619 27.43102332 -5.02064715 13.43023112 0 0 Z " fill="#08193F" transform="translate(158,182)"/>
<path d="M0 0 C0.66 0.66 1.32 1.32 2 2 C1.25556641 2.78310547 1.25556641 2.78310547 0.49609375 3.58203125 C-9.72225184 14.65352144 -18.06871714 28.05045739 -21 43 C-23 41 -23 41 -23.08203125 38.79296875 C-22.16455696 29.92405063 -22.16455696 29.92405063 -19 26 C-18.34 25.67 -17.68 25.34 -17 25 C-16.608125 23.865625 -16.21625 22.73125 -15.8125 21.5625 C-14.18934607 16.9105743 -11.56369216 13.31166763 -8.62109375 9.39453125 C-6.90140454 7.0472628 -6.90140454 7.0472628 -5.94921875 4.28125 C-5 2 -5 2 -2.375 0.6875 C-1.199375 0.3471875 -1.199375 0.3471875 0 0 Z " fill="#0A1A3A" transform="translate(109,25)"/>
<path d="M0 0 C2.97 0.495 2.97 0.495 6 1 C6 1.99 6 2.98 6 4 C6.99 4 7.98 4 9 4 C9 4.66 9 5.32 9 6 C9.99 6.33 10.98 6.66 12 7 C12.99 8.485 12.99 8.485 14 10 C14.66 10.66 15.32 11.32 16 12 C18 14 18 14 20 17 C20.99 17 21.98 17 23 17 C23.59732819 19.76264289 24 22.16032769 24 25 C23.34 25 22.68 25 22 25 C20.66796875 23.20703125 20.66796875 23.20703125 19.1875 20.8125 C17.35153182 17.94351778 15.60180944 15.40523713 13.125 13.0625 C12.42375 12.381875 11.7225 11.70125 11 11 C11 10.34 11 9.68 11 9 C10.12601563 8.59974609 10.12601563 8.59974609 9.234375 8.19140625 C6.95523863 6.97613248 5.19537168 5.62930828 3.25 3.9375 C2.63640625 3.41027344 2.0228125 2.88304688 1.390625 2.33984375 C0.93171875 1.89769531 0.4728125 1.45554687 0 1 C0 0.67 0 0.34 0 0 Z M27 11 C27.33 11 27.66 11 28 11 C27.67 13.31 27.34 15.62 27 18 C26.01 18 25.02 18 24 18 C24.99 15.69 25.98 13.38 27 11 Z " fill="#06173E" transform="translate(205,94)"/>
<path d="M0 0 C0.99 0.33 1.98 0.66 3 1 C2.67 1.99 2.34 2.98 2 4 C3.423125 4.4640625 3.423125 4.4640625 4.875 4.9375 C8 6 8 6 10 7 C9.67 8.32 9.34 9.64 9 11 C12.44069624 13.29379749 13.72290301 14 18 14 C17.01 14.495 17.01 14.495 16 15 C16.474375 15.45375 16.94875 15.9075 17.4375 16.375 C19 18 19 18 20 20 C19.01 20.33 18.02 20.66 17 21 C14.68457665 19.3439949 12.62071797 17.69105173 10.5 15.8125 C9.91863281 15.31685547 9.33726563 14.82121094 8.73828125 14.31054688 C3.68174631 9.9309165 0.78245121 6.88557066 0 0 Z " fill="#344E96" transform="translate(26,123)"/>
<path d="M0 0 C3.37833263 4.5044435 3.37833263 4.5044435 3.94921875 8.23046875 C4.13774414 9.43606445 4.13774414 9.43606445 4.33007812 10.66601562 C4.44802734 11.49810547 4.56597656 12.33019531 4.6875 13.1875 C4.88182617 14.40663086 4.88182617 14.40663086 5.08007812 15.65039062 C6.27244714 23.58059093 6.34532794 31.09619837 5 39 C4.67 39 4.34 39 4 39 C3.67 32.4 3.34 25.8 3 19 C2.67 19 2.34 19 2 19 C1.67 16.69 1.34 14.38 1 12 C0.01 12.495 0.01 12.495 -1 13 C-0.67 8.71 -0.34 4.42 0 0 Z " fill="#99A5C2" transform="translate(233,129)"/>
<path d="M0 0 C2.31 0 4.62 0 7 0 C7 0.99 7 1.98 7 3 C9.97 3.99 12.94 4.98 16 6 C15.67 6.66 15.34 7.32 15 8 C20.28 9.32 25.56 10.64 31 12 C31 12.33 31 12.66 31 13 C20.95477925 13.75812987 10.31295428 9.59619623 2 4 C0.72265625 1.84375 0.72265625 1.84375 0 0 Z " fill="#8C96AD" transform="translate(45,219)"/>
<path d="M0 0 C0.99 0.33 1.98 0.66 3 1 C3.125 3.875 3.125 3.875 3 7 C2.34 7.66 1.68 8.32 1 9 C0.67 8.67 0.34 8.34 0 8 C-3.4821006 13.82185199 -6.10463724 19.48180123 -8 26 C-8.33 26 -8.66 26 -9 26 C-8.59178789 20.38708347 -7.40739791 16.24382126 -4.98046875 11.1796875 C-4.06596678 9.14665125 -3.4334603 7.21592291 -2.875 5.0625 C-2 2 -2 2 0 0 Z " fill="#4B6BC5" transform="translate(99,41)"/>
<path d="M0 0 C1.89932003 3.79864006 0.14913446 8.09190757 -1 12 C-2.72579328 16.15669639 -4.55089514 20.21728587 -7 24 C-7.99 24.33 -8.98 24.66 -10 25 C-9.38722388 22.03824877 -8.74627478 20.61941217 -7 18 C-6.75944532 15.94290404 -6.75944532 15.94290404 -6.875 13.8125 C-6.91625 12.554375 -6.9575 11.29625 -7 10 C-6.01 10 -5.02 10 -4 10 C-3.79503906 9.36191406 -3.59007812 8.72382813 -3.37890625 8.06640625 C-3.10949219 7.24011719 -2.84007812 6.41382813 -2.5625 5.5625 C-2.16224609 4.32693359 -2.16224609 4.32693359 -1.75390625 3.06640625 C-1 1 -1 1 0 0 Z " fill="#5370CD" transform="translate(158,174)"/>
<path d="M0 0 C1.32 0 2.64 0 4 0 C4 0.66 4 1.32 4 2 C4.7425 1.7525 5.485 1.505 6.25 1.25 C7.1575 1.1675 8.065 1.085 9 1 C11.3125 2.9375 11.3125 2.9375 13 5 C13.33 3.68 13.66 2.36 14 1 C15.32 1 16.64 1 18 1 C18 3.31 18 5.62 18 8 C14.59071765 9.14274094 13.26962646 9.11941578 9.921875 7.63671875 C8.87515625 6.99347656 7.8284375 6.35023438 6.75 5.6875 C5.16445313 4.73423828 5.16445313 4.73423828 3.546875 3.76171875 C1 2 1 2 0 0 Z " fill="#546EBE" transform="translate(44,143)"/>
<path d="M0 0 C0.66 0.33 1.32 0.66 2 1 C1.43410156 1.54269531 0.86820313 2.08539062 0.28515625 2.64453125 C-0.44832031 3.35996094 -1.18179688 4.07539063 -1.9375 4.8125 C-3.03384766 5.87404297 -3.03384766 5.87404297 -4.15234375 6.95703125 C-6.20834646 8.95536163 -6.20834646 8.95536163 -7 12 C-6.34 12.33 -5.68 12.66 -5 13 C-6.65 14.98 -8.3 16.96 -10 19 C-10.66 18.34 -11.32 17.68 -12 17 C-12.99 19.31 -13.98 21.62 -15 24 C-15.66 24 -16.32 24 -17 24 C-14.2006356 14.32300936 -7.32240119 6.70457359 0 0 Z " fill="#8F98AF" transform="translate(36,24)"/>
<path d="M0 0 C1.32 0.66 2.64 1.32 4 2 C3.34 3.32 2.68 4.64 2 6 C1.34 6 0.68 6 0 6 C-0.33 6.99 -0.66 7.98 -1 9 C-0.34 8.67 0.32 8.34 1 8 C0.67 9.65 0.34 11.3 0 13 C-1.65 12.67 -3.3 12.34 -5 12 C-5 11.34 -5 10.68 -5 10 C-5.66 10 -6.32 10 -7 10 C-6.42424336 6.64749299 -5.40693737 5.06181371 -2.9375 2.75 C-2.38964844 2.22921875 -1.84179688 1.7084375 -1.27734375 1.171875 C-0.64505859 0.59179688 -0.64505859 0.59179688 0 0 Z " fill="#1A2855" transform="translate(36,26)"/>
<path d="M0 0 C1.61538936 4.03847341 0.43614419 7.03350651 -1 11 C-3 14.4375 -3 14.4375 -5 17 C-5.66 17 -6.32 17 -7 17 C-7.33 18.32 -7.66 19.64 -8 21 C-8.66 20.67 -9.32 20.34 -10 20 C-8.07969811 13.0262721 -5.22193403 5.22193403 0 0 Z " fill="#3B5DBA" transform="translate(173,135)"/>
<path d="M0 0 C0.99 0.33 1.98 0.66 3 1 C3.33 1.99 3.66 2.98 4 4 C3.01 4.66 2.02 5.32 1 6 C0.40884586 9.0396788 0.40884586 9.0396788 0.3125 12.5625 C0.24804688 13.81417969 0.18359375 15.06585938 0.1171875 16.35546875 C-0.0185906 20.57816753 -0.07282992 24.77586448 0 29 C-0.66 29.33 -1.32 29.66 -2 30 C-2.05834395 26.12506384 -2.09371201 22.25024164 -2.125 18.375 C-2.14175781 17.28058594 -2.15851562 16.18617188 -2.17578125 15.05859375 C-2.23662606 5.01920021 -2.23662606 5.01920021 0 0 Z " fill="#131B31" transform="translate(14,137)"/>
<path d="M0 0 C8.25 0 16.5 0 25 0 C25 0.66 25 1.32 25 2 C21.48896058 3.75551971 17.49277754 3.22711374 13.625 3.25 C12.76132813 3.270625 11.89765625 3.29125 11.0078125 3.3125 C9.75484375 3.32023438 9.75484375 3.32023438 8.4765625 3.328125 C7.71424316 3.3374707 6.95192383 3.34681641 6.16650391 3.35644531 C4 3 4 3 0 0 Z " fill="#5F6C92" transform="translate(73,230)"/>
<path d="M0 0 C6.61242722 1.82221376 12.80520671 4.05223604 19 7 C19 7.66 19 8.32 19 9 C14.33140163 9.42441803 11.21814346 7.88309976 7 6 C6.071875 5.87625 5.14375 5.7525 4.1875 5.625 C3.465625 5.41875 2.74375 5.2125 2 5 C0.6875 2.4375 0.6875 2.4375 0 0 Z " fill="#4165CA" transform="translate(89,158)"/>
<path d="M0 0 C0.99 0.33 1.98 0.66 3 1 C2.13375 1.2784375 2.13375 1.2784375 1.25 1.5625 C-1.36526813 2.94648442 -1.36526813 2.94648442 -2.625 6.5625 C-3.5859375 8.4453125 -3.5859375 8.4453125 -5 10 C-8.33921016 10.91643938 -11.5488887 11.04610263 -15 11 C-13.36587557 9.29159719 -12.13093906 8.06546953 -10 7 C-10 6.01 -10 5.02 -10 4 C-8.906875 3.71125 -7.81375 3.4225 -6.6875 3.125 C-2.95986155 2.18106796 -2.95986155 2.18106796 0 0 Z " fill="#5F73A3" transform="translate(132,11)"/>
<path d="M0 0 C0 0.66 0 1.32 0 2 C-1.62626404 3.38232443 -3.2925002 4.71937515 -5 6 C-5.33 5.34 -5.66 4.68 -6 4 C-7.65 4.66 -9.3 5.32 -11 6 C-11 6.66 -11 7.32 -11 8 C-12.32 8.33 -13.64 8.66 -15 9 C-12.3821089 3.27336323 -6.55213705 -2.3746 0 0 Z " fill="#172346" transform="translate(54,17)"/>
<path d="M0 0 C1.216875 0.4125 2.43375 0.825 3.6875 1.25 C9.75757149 3.27658936 15.87841551 5.13608633 22 7 C18.25 8.125 18.25 8.125 16 7 C16 7.66 16 8.32 16 9 C15.34 8.67 14.68 8.34 14 8 C10.1673437 6.19013453 7.22913486 5.80329605 3 6 C2.67 4.68 2.34 3.36 2 2 C1.34 2 0.68 2 0 2 C0 1.34 0 0.68 0 0 Z " fill="#0B1E3F" transform="translate(51,149)"/>
<path d="M0 0 C0.99 0.33 1.98 0.66 3 1 C3 1.66 3 2.32 3 3 C4.0725 3.103125 5.145 3.20625 6.25 3.3125 C9.84739269 3.97202199 11.45776191 4.45776191 14 7 C14 7.66 14 8.32 14 9 C14.66 9.33 15.32 9.66 16 10 C15.34 10.66 14.68 11.32 14 12 C11.375 11.625 11.375 11.625 9 11 C9 9.35 9 7.7 9 6 C7.88625 5.87625 6.7725 5.7525 5.625 5.625 C2 5 2 5 0 3 C0 2.01 0 1.02 0 0 Z " fill="#23325F" transform="translate(198,18)"/>
<path d="M0 0 C11.55 0 23.1 0 35 0 C35 0.33 35 0.66 35 1 C17.14350797 2.33257403 17.14350797 2.33257403 9 1 C8.67 1.99 8.34 2.98 8 4 C5.36 3.01 2.72 2.02 0 1 C0 0.67 0 0.34 0 0 Z " fill="#4F71D4" transform="translate(91,158)"/>
<path d="M0 0 C-1.56367357 3.52238047 -3.69495889 6.27123994 -6.125 9.25 C-6.84945312 10.14203125 -7.57390625 11.0340625 -8.3203125 11.953125 C-9.15175781 12.96632812 -9.15175781 12.96632812 -10 14 C-11.32 13.67 -12.64 13.34 -14 13 C-13.01 12.34 -12.02 11.68 -11 11 C-10.67 10.34 -10.34 9.68 -10 9 C-9.34 8.67 -8.68 8.34 -8 8 C-7.566875 6.5459375 -7.566875 6.5459375 -7.125 5.0625 C-6 2 -6 2 -4 0.625 C-2 0 -2 0 0 0 Z " fill="#3B549B" transform="translate(149,199)"/>
<path d="M0 0 C3.0916909 2.52956528 3.90931332 5.22454612 5 9 C5.78375 9.0825 6.5675 9.165 7.375 9.25 C10 10 10 10 11.25 11.75 C12.0504782 14.15143459 12.58404921 16.50429527 13 19 C7.19313019 17.06437673 3.80685043 9.79173792 1.0625 4.5 C0 2 0 2 0 0 Z " fill="#959AAD" transform="translate(18,189)"/>
<path d="M0 0 C-0.33 0.99 -0.66 1.98 -1 3 C-1.66 3 -2.32 3 -3 3 C-3 3.66 -3 4.32 -3 5 C-3.99 5 -4.98 5 -6 5 C-6 5.66 -6 6.32 -6 7 C-6.66 7.66 -7.32 8.32 -8 9 C-8.64767793 11.57061311 -8.64767793 11.57061311 -9 14 C-9.33 14 -9.66 14 -10 14 C-10.02712066 12.56260487 -10.04645067 11.12506137 -10.0625 9.6875 C-10.07410156 8.88699219 -10.08570313 8.08648437 -10.09765625 7.26171875 C-10 5 -10 5 -9 2 C-3.21052632 0 -3.21052632 0 0 0 Z " fill="#20386D" transform="translate(172,156)"/>
<path d="M0 0 C5.40188823 1.5236095 10.314996 3.92269211 15 7 C15.33 7.66 15.66 8.32 16 9 C14.02 9 12.04 9 10 9 C10 8.34 10 7.68 10 7 C8.68 7 7.36 7 6 7 C5.67 6.34 5.34 5.68 5 5 C4.01 4.67 3.02 4.34 2 4 C2 3.34 2 2.68 2 2 C1.01 1.67 0.02 1.34 -1 1 C-0.67 0.67 -0.34 0.34 0 0 Z " fill="#5972C2" transform="translate(188,86)"/>
<path d="M0 0 C0.66 0.66 1.32 1.32 2 2 C0.56974806 3.65213589 -0.86945545 5.29652589 -2.3125 6.9375 C-3.11300781 7.85402344 -3.91351563 8.77054688 -4.73828125 9.71484375 C-7 12 -7 12 -10 13 C-9.731875 12.484375 -9.46375 11.96875 -9.1875 11.4375 C-7.87242728 8.84725762 -7.87242728 8.84725762 -6.6875 5.375 C-5 2 -5 2 -2.3125 0.5625 C-1.549375 0.376875 -0.78625 0.19125 0 0 Z " fill="#05163C" transform="translate(109,25)"/>
<path d="M0 0 C0 0.66 0 1.32 0 2 C-2.08000011 2.84161854 -4.16414146 3.67300763 -6.25 4.5 C-7.41015625 4.9640625 -8.5703125 5.428125 -9.765625 5.90625 C-13 7 -13 7 -17 7 C-17 6.34 -17 5.68 -17 5 C-16.31292969 4.80664062 -15.62585938 4.61328125 -14.91796875 4.4140625 C-14.01691406 4.15367187 -13.11585937 3.89328125 -12.1875 3.625 C-11.29417969 3.36976563 -10.40085937 3.11453125 -9.48046875 2.8515625 C-1.17431193 0 -1.17431193 0 0 0 Z " fill="#37487E" transform="translate(117,224)"/>
<path d="M0 0 C0.66 0.33 1.32 0.66 2 1 C1.6875 3.375 1.6875 3.375 1 6 C0.01 6.66 -0.98 7.32 -2 8 C-3.00168531 9.94832935 -3.00168531 9.94832935 -3.6875 12.125 C-3.93886719 12.84945312 -4.19023438 13.57390625 -4.44921875 14.3203125 C-4.63097656 14.87460938 -4.81273438 15.42890625 -5 16 C-5.66 15.34 -6.32 14.68 -7 14 C-6.690625 13.2575 -6.38125 12.515 -6.0625 11.75 C-4.96832419 9.16658626 -4.96832419 9.16658626 -4.625 7 C-3.72935867 4.13394774 -1.93866296 2.25135054 0 0 Z " fill="#3B5EBD" transform="translate(84,84)"/>
<path d="M0 0 C0.66 0 1.32 0 2 0 C1.9375 2.1875 1.9375 2.1875 1 5 C-1.1717219 6.93157957 -3.52601047 8.48201687 -6 10 C-6 8.02 -6 6.04 -6 4 C-5.34 4 -4.68 4 -4 4 C-4 3.34 -4 2.68 -4 2 C-3.01 2 -2.02 2 -1 2 C-0.67 1.34 -0.34 0.68 0 0 Z " fill="#606987" transform="translate(216,206)"/>
<path d="M0 0 C0.99 0 1.98 0 3 0 C4.36363636 4.09090909 4.36363636 4.09090909 3 7 C-0.0625 8.75 -0.0625 8.75 -3 10 C-2.25 3.375 -2.25 3.375 0 0 Z " fill="#1F2C57" transform="translate(207,209)"/>
<path d="M0 0 C1.98 0 3.96 0 6 0 C5.01 0.495 5.01 0.495 4 1 C3.5359375 1.928125 3.5359375 1.928125 3.0625 2.875 C1.97094732 5.05810535 0.79288485 6.37010468 -1 8 C-1.99 7.67 -2.98 7.34 -4 7 C-2.68 4.69 -1.36 2.38 0 0 Z " fill="#2D4C95" transform="translate(80,83)"/>
<path d="M0 0 C0.66 0.33 1.32 0.66 2 1 C1 3 1 3 -1.25 4.3125 C-4 5 -4 5 -6.8125 3.75 C-7.534375 3.1725 -8.25625 2.595 -9 2 C-9 1.34 -9 0.68 -9 0 C-5.90914327 -1.54542837 -3.32167685 -0.59315658 0 0 Z " fill="#0E162D" transform="translate(114,11)"/>
<path d="M0 0 C7.55589124 0.61933535 7.55589124 0.61933535 9.75 2.5 C10.36875 3.2425 10.36875 3.2425 11 4 C13.10332891 4.71447643 13.10332891 4.71447643 15 5 C15.33 6.32 15.66 7.64 16 9 C10.66666667 6.33333333 5.33333333 3.66666667 0 1 C0 0.67 0 0.34 0 0 Z " fill="#3B5BB2" transform="translate(146,73)"/>
<path d="M0 0 C3.76119476 0.62393651 6.18960042 2.34773715 9.25 4.5625 C10.14203125 5.20316406 11.0340625 5.84382813 11.953125 6.50390625 C12.96632812 7.24447266 12.96632812 7.24447266 14 8 C13.67 8.66 13.34 9.32 13 10 C12.278125 9.525625 11.55625 9.05125 10.8125 8.5625 C8.10524774 7.05847097 6.03805725 6.43400818 3 6 C3 5.34 3 4.68 3 4 C2.34 4 1.68 4 1 4 C0.67 2.68 0.34 1.36 0 0 Z " fill="#959FB1" transform="translate(198,15)"/>
<path d="M0 0 C0.66 0.33 1.32 0.66 2 1 C1.60167969 1.58007812 1.20335938 2.16015625 0.79296875 2.7578125 C-2.12751607 7.0639288 -4.81884446 11.274163 -7 16 C-8.27676177 12.16971469 -7.47558027 10.63902097 -6.03515625 7.0078125 C-4.49211098 4.01488697 -2.5358503 2.19316783 0 0 Z " fill="#102350" transform="translate(100,37)"/>
<path d="M0 0 C-0.99 0 -1.98 0 -3 0 C-3 0.66 -3 1.32 -3 2 C-2.01 1.67 -1.02 1.34 0 1 C0 1.99 0 2.98 0 4 C-0.78375 3.814375 -1.5675 3.62875 -2.375 3.4375 C-4.97089775 2.74037734 -4.97089775 2.74037734 -7 4 C-7 3.34 -7 2.68 -7 2 C-8.98 2.33 -10.96 2.66 -13 3 C-9.54666565 -0.45333435 -4.63654999 -1.85462 0 0 Z " fill="#656B81" transform="translate(70,9)"/>
<path d="M0 0 C0.66 0.66 1.32 1.32 2 2 C3.65 1.34 5.3 0.68 7 0 C4.11593757 3.40843742 2.6291735 4.86591384 -1.8125 5.8125 C-3.3903125 5.9053125 -3.3903125 5.9053125 -5 6 C-4.1875 3.5625 -4.1875 3.5625 -3 1 C-2.01 0.67 -1.02 0.34 0 0 Z " fill="#6E768D" transform="translate(203,216)"/>
<path d="M0 0 C0.33 0 0.66 0 1 0 C0.67 2.31 0.34 4.62 0 7 C-0.99 7 -1.98 7 -3 7 C-2.01 4.69 -1.02 2.38 0 0 Z M-5 6 C-3.23537317 9.08809695 -3 10.23312136 -3 14 C-3.66 14 -4.32 14 -5 14 C-5.66 12.02 -6.32 10.04 -7 8 C-6.34 7.34 -5.68 6.68 -5 6 Z " fill="#0A142E" transform="translate(232,105)"/>
<path d="M0 0 C0.66 0.33 1.32 0.66 2 1 C2 3.97 2 6.94 2 10 C0.35 9.67 -1.3 9.34 -3 9 C-2.5020163 5.26512223 -2.12508244 3.18762365 0 0 Z " fill="#223365" transform="translate(19,50)"/>
<path d="M0 0 C0.66 0.33 1.32 0.66 2 1 C1.67386719 1.47308594 1.34773438 1.94617187 1.01171875 2.43359375 C-2.28545186 7.42311741 -4.36458649 12.25610865 -6 18 C-6.33 18 -6.66 18 -7 18 C-6.54511459 11.74532555 -5.17095819 6.46840714 -2 1 C-1.34 0.67 -0.68 0.34 0 0 Z " fill="#4C6CD5" transform="translate(97,49)"/>
<path d="M0 0 C0.66 0.33 1.32 0.66 2 1 C1.67 1.33 1.34 1.66 1 2 C1.66 2.66 2.32 3.32 3 4 C0.1875 6.0625 0.1875 6.0625 -3 8 C-3.99 7.67 -4.98 7.34 -6 7 C-4.77065985 3.31197956 -3.06140622 2.27643027 0 0 Z " fill="#314D99" transform="translate(171,148)"/>
<path d="M0 0 C0.66 0.66 1.32 1.32 2 2 C4.77815743 2.71234806 7.12371715 3 10 3 C9.34 3.66 8.68 4.32 8 5 C4.9609375 4.9765625 4.9609375 4.9765625 1.375 4.625 C0.18648437 4.51414062 -1.00203125 4.40328125 -2.2265625 4.2890625 C-3.59941406 4.14597656 -3.59941406 4.14597656 -5 4 C-4.67 3.01 -4.34 2.02 -4 1 C-2.0625 0.1875 -2.0625 0.1875 0 0 Z " fill="#0E2048" transform="translate(168,78)"/>
<path d="M0 0 C2.99324263 1.0975223 3.84610901 1.67682892 5.25 4.625 C5.4975 5.40875 5.745 6.1925 6 7 C4.35 7.66 2.7 8.32 1 9 C1 8.01 1 7.02 1 6 C0.68578929 3.99690671 0.3548954 1.99628664 0 0 Z " fill="#172548" transform="translate(214,29)"/>
<path d="M0 0 C0.99 0.33 1.98 0.66 3 1 C2.01 2.485 2.01 2.485 1 4 C0.67 4.99 0.34 5.98 0 7 C-1.1446875 6.9071875 -1.1446875 6.9071875 -2.3125 6.8125 C-5.04525312 6.74101915 -5.04525312 6.74101915 -6.8125 8.5 C-7.204375 8.995 -7.59625 9.49 -8 10 C-8 9.01 -8 8.02 -8 7 C-6.50390625 5.68359375 -6.50390625 5.68359375 -4.5625 4.4375 C-1.76740279 2.69463071 -1.76740279 2.69463071 0 0 Z " fill="#324D95" transform="translate(116,22)"/>
<path d="M0 0 C-0.639375 0.61875 -1.27875 1.2375 -1.9375 1.875 C-4.03883584 3.82597612 -4.03883584 3.82597612 -5 6 C-6.65 6 -8.3 6 -10 6 C-10 4.68 -10 3.36 -10 2 C-6.5980513 -0.09350689 -3.94727588 -0.17942163 0 0 Z " fill="#374D7B" transform="translate(178,7)"/>
<path d="M0 0 C0 1.98 0 3.96 0 6 C-0.639375 6.12375 -1.27875 6.2475 -1.9375 6.375 C-2.9584375 6.684375 -2.9584375 6.684375 -4 7 C-4.33 7.66 -4.66 8.32 -5 9 C-5.66 9 -6.32 9 -7 9 C-6.63229616 5.6906654 -3.81323709 0 0 0 Z " fill="#213161" transform="translate(224,195)"/>
<path d="M0 0 C0.99 0.33 1.98 0.66 3 1 C3 3.31 3 5.62 3 8 C0.03 7.505 0.03 7.505 -3 7 C-1.125 1.125 -1.125 1.125 0 0 Z " fill="#4366CE" transform="translate(59,143)"/>
<path d="M0 0 C1 3 1 3 0.0625 5.25 C-1.23961555 8.62018141 -1.14047634 11.41785339 -1 15 C-2.32 14.67 -3.64 14.34 -5 14 C-4.855625 13.29875 -4.71125 12.5975 -4.5625 11.875 C-3.95744935 8.96996476 -3.95744935 8.96996476 -3.625 5.875 C-2.97052972 2.86443669 -2.3799663 1.86258232 0 0 Z " fill="#9199AC" transform="translate(232,110)"/>
<path d="M0 0 C1.32 0.66 2.64 1.32 4 2 C3.875 3.875 3.875 3.875 3 6 C-0.0625 7.25 -0.0625 7.25 -3 8 C-2.45276317 4.62537285 -1.9451 2.91765 0 0 Z " fill="#21335F" transform="translate(24,40)"/>
<path d="M0 0 C0.33 0.66 0.66 1.32 1 2 C0.29296875 3.91015625 0.29296875 3.91015625 -0.8125 6.0625 C-1.16957031 6.77535156 -1.52664062 7.48820313 -1.89453125 8.22265625 C-3 10 -3 10 -5 11 C-5.33 9.35 -5.66 7.7 -6 6 C-4.68 5.67 -3.36 5.34 -2 5 C-2.33 3.68 -2.66 2.36 -3 1 C-2.01 0.67 -1.02 0.34 0 0 Z " fill="#77809B" transform="translate(232,185)"/>
<path d="M0 0 C0.66 0.66 1.32 1.32 2 2 C1.34 2 0.68 2 0 2 C-0.02578125 2.62648438 -0.0515625 3.25296875 -0.078125 3.8984375 C-0.13484375 4.71570313 -0.1915625 5.53296875 -0.25 6.375 C-0.29640625 7.18710938 -0.3428125 7.99921875 -0.390625 8.8359375 C-1 11 -1 11 -3.046875 12.2890625 C-4.01367188 12.64097656 -4.01367188 12.64097656 -5 13 C-4.48474397 7.71862571 -2.74522883 4.42778844 0 0 Z " fill="#111A2D" transform="translate(21,120)"/>
<path d="M0 0 C2.97 0.33 5.94 0.66 9 1 C9 2.65 9 4.3 9 6 C7.68 6.33 6.36 6.66 5 7 C4.9175 6.21625 4.835 5.4325 4.75 4.625 C4.5025 3.75875 4.255 2.8925 4 2 C2.68 1.34 1.36 0.68 0 0 Z " fill="#112651" transform="translate(77,157)"/>
<path d="M0 0 C5.01113235 1.4317521 6.94469549 3.98445693 10 8 C7.69 8 5.38 8 3 8 C2.814375 7.13375 2.814375 7.13375 2.625 6.25 C1.99351176 3.97664233 1.11141809 2.0746471 0 0 Z " fill="#3E579D" transform="translate(204,95)"/>
<path d="M0 0 C0.33 0 0.66 0 1 0 C1.19392201 5.52677733 0.7479503 9.75614911 -1 15 C-1.66 14.67 -2.32 14.34 -3 14 C-3 12.02 -3 10.04 -3 8 C-2.34 8 -1.68 8 -1 8 C-0.67 5.36 -0.34 2.72 0 0 Z " fill="#131D2F" transform="translate(236,87)"/>
<path d="M0 0 C2.97 0 5.94 0 9 0 C9 0.33 9 0.66 9 1 C6.69 1.66 4.38 2.32 2 3 C2 6.3 2 9.6 2 13 C1.34 13 0.68 13 0 13 C0 8.71 0 4.42 0 0 Z " fill="#5674D2" transform="translate(163,82)"/>
<path d="M0 0 C0.33 0 0.66 0 1 0 C1 2.64 1 5.28 1 8 C0.34 8 -0.32 8 -1 8 C-1 9.98 -1 11.96 -1 14 C-0.01 14.33 0.98 14.66 2 15 C0.68 15 -0.64 15 -2 15 C-2.05406122 13.06280622 -2.09282025 11.12518079 -2.125 9.1875 C-2.14820312 8.10855469 -2.17140625 7.02960938 -2.1953125 5.91796875 C-2 3 -2 3 0 0 Z " fill="#617FD2" transform="translate(89,67)"/>
<path d="M0 0 C2.625 0.375 2.625 0.375 5 1 C5.33 2.32 5.66 3.64 6 5 C4.02 5.99 2.04 6.98 0 8 C0.66 6.35 1.32 4.7 2 3 C0.68 2.67 -0.64 2.34 -2 2 C-1.34 1.34 -0.68 0.68 0 0 Z " fill="#18233D" transform="translate(117,13)"/>
<path d="M0 0 C0 0.66 0 1.32 0 2 C-0.66 2 -1.32 2 -2 2 C-1.04134491 4.33075929 -1.04134491 4.33075929 2 6 C0.68 6.33 -0.64 6.66 -2 7 C-2 6.34 -2 5.68 -2 5 C-3.98 4.34 -5.96 3.68 -8 3 C-5.22569089 1.15046059 -3.35957737 0 0 0 Z " fill="#868C97" transform="translate(139,224)"/>
<path d="M0 0 C0.99 0 1.98 0 3 0 C3.103125 0.639375 3.20625 1.27875 3.3125 1.9375 C3.539375 2.618125 3.76625 3.29875 4 4 C4.99 4.33 5.98 4.66 7 5 C7.33 4.34 7.66 3.68 8 3 C7.67 4.32 7.34 5.64 7 7 C5.35 7 3.7 7 2 7 C0.5393715 4.35261084 0 3.10551666 0 0 Z " fill="#1F2A4C" transform="translate(21,191)"/>
<path d="M0 0 C0.640625 1.80859375 0.640625 1.80859375 1 4 C-1.41728167 7.29018893 -4.03613528 10.19212816 -7 13 C-5.58832253 7.73829306 -3.25149768 4.27828642 0 0 Z " fill="#4167CC" transform="translate(173,135)"/>
<path d="M0 0 C2.475 0.99 2.475 0.99 5 2 C5 4.64 5 7.28 5 10 C2.03134491 7.45543849 0.6380249 4.51005335 -1 1 C-0.67 0.67 -0.34 0.34 0 0 Z " fill="#2F4783" transform="translate(22,118)"/>
<path d="M0 0 C0.66 0 1.32 0 2 0 C2 2.97 2 5.94 2 9 C1.34 9 0.68 9 0 9 C0 10.65 0 12.3 0 14 C-0.33 14 -0.66 14 -1 14 C-0.67 9.38 -0.34 4.76 0 0 Z " fill="#5B78DC" transform="translate(160,158)"/>
<path d="M0 0 C-0.99 0 -1.98 0 -3 0 C-2.67 0.99 -2.34 1.98 -2 3 C-3.65 3.33 -5.3 3.66 -7 4 C-7 3.34 -7 2.68 -7 2 C-8.32 1.67 -9.64 1.34 -11 1 C-3.57142857 -1.42857143 -3.57142857 -1.42857143 0 0 Z " fill="#7483AB" transform="translate(146,9)"/>
<path d="M0 0 C1.62580966 0.11398665 3.25067157 0.24155659 4.875 0.375 C5.77992187 0.44460938 6.68484375 0.51421875 7.6171875 0.5859375 C10 1 10 1 12 3 C10.948125 2.979375 9.89625 2.95875 8.8125 2.9375 C5.67295096 2.98896802 3.03116604 3.26517187 0 4 C0 2.68 0 1.36 0 0 Z " fill="#646A76" transform="translate(102,8)"/>
<path d="M0 0 C3.37503669 1.1858237 5.64722731 2.27573689 8 5 C6.68 4.67 5.36 4.34 4 4 C3.67 4.66 3.34 5.32 3 6 C2.01 6 1.02 6 0 6 C-1 3 -1 3 0 0 Z " fill="#091A3F" transform="translate(43,144)"/>
<path d="M0 0 C1.5 1.25 1.5 1.25 3 3 C3 4.32 3 5.64 3 7 C0.625 6.75 0.625 6.75 -2 6 C-3.3125 3.9375 -3.3125 3.9375 -4 2 C-2.02 2.99 -2.02 2.99 0 4 C-0.33 3.01 -0.66 2.02 -1 1 C-0.67 0.67 -0.34 0.34 0 0 Z " fill="#606D8A" transform="translate(36,207)"/>
<path d="M0 0 C0.515625 0.268125 1.03125 0.53625 1.5625 0.8125 C4.66401415 2.32349407 7.82262806 3.65572726 11 5 C7.69183862 6.10272046 5.29888363 6.21537818 2 5 C0.6875 2.4375 0.6875 2.4375 0 0 Z " fill="#3A5BB3" transform="translate(89,158)"/>
<path d="M0 0 C0.99 0.33 1.98 0.66 3 1 C3.33 1.99 3.66 2.98 4 4 C3.01 4.66 2.02 5.32 1 6 C0.34 6.99 -0.32 7.98 -1 9 C-0.67 6.03 -0.34 3.06 0 0 Z " fill="#0A142A" transform="translate(14,137)"/>
<path d="M0 0 C1.32 0.33 2.64 0.66 4 1 C4 1.66 4 2.32 4 3 C2.7934375 3.309375 2.7934375 3.309375 1.5625 3.625 C0.716875 4.07875 -0.12875 4.5325 -1 5 C-1.89830839 8.05272465 -1.89830839 8.05272465 -2 11 C-2.33 11 -2.66 11 -3 11 C-2.53199289 6.94393835 -2.12046792 3.53411321 0 0 Z " fill="#606773" transform="translate(15,132)"/>
<path d="M0 0 C0.99 0 1.98 0 3 0 C3 0.99 3 1.98 3 3 C3.99 3.33 4.98 3.66 6 4 C6 5.65 6 7.3 6 9 C5.01 9.495 5.01 9.495 4 10 C2.68 6.7 1.36 3.4 0 0 Z " fill="#374D84" transform="translate(16,108)"/>
<path d="M0 0 C4.97093824 0.41153737 9.44508386 0.79600832 14 3 C10.52487282 4.15837573 8.86329714 3.77265943 5.3125 3.0625 C4.31863281 2.86785156 3.32476562 2.67320313 2.30078125 2.47265625 C1.54152344 2.31667969 0.78226563 2.16070312 0 2 C0 1.34 0 0.68 0 0 Z " fill="#98A1B9" transform="translate(178,8)"/>
<path d="M0 0 C1.485 0.99 1.485 0.99 3 2 C3 2.66 3 3.32 3 4 C2.34 4.66 1.68 5.32 1 6 C0.35232207 8.57061311 0.35232207 8.57061311 0 11 C-0.33 11 -0.66 11 -1 11 C-1.0270043 9.54176788 -1.04639787 8.08339325 -1.0625 6.625 C-1.07410156 5.81289062 -1.08570313 5.00078125 -1.09765625 4.1640625 C-1 2 -1 2 0 0 Z " fill="#0C1E4A" transform="translate(163,159)"/>
<path d="M0 0 C2.31 1.98 4.62 3.96 7 6 C6.01 6 5.02 6 4 6 C3.01 6.33 2.02 6.66 1 7 C0.34 5.02 -0.32 3.04 -1 1 C-0.67 0.67 -0.34 0.34 0 0 Z " fill="#365096" transform="translate(215,104)"/>
<path d="M0 0 C2.31 0.33 4.62 0.66 7 1 C6.01 2.485 6.01 2.485 5 4 C3.35 3.67 1.7 3.34 0 3 C0 2.01 0 1.02 0 0 Z " fill="#1C2B56" transform="translate(207,26)"/>
<path d="M0 0 C5.75 0.875 5.75 0.875 8 2 C7.67 2.66 7.34 3.32 7 4 C6.34 3.67 5.68 3.34 5 3 C5 3.66 5 4.32 5 5 C3.0625 4.1875 3.0625 4.1875 1 3 C0.67 2.01 0.34 1.02 0 0 Z " fill="#253563" transform="translate(183,10)"/>
<path d="M0 0 C0.66 0.33 1.32 0.66 2 1 C2.66 1 3.32 1 4 1 C4.99 1 5.98 1 7 1 C7 1.66 7 2.32 7 3 C4.29120665 4.35439668 1.99066732 4.06501451 -1 4 C-1.33 3.01 -1.66 2.02 -2 1 C-1.34 0.67 -0.68 0.34 0 0 Z " fill="#1E2E5D" transform="translate(45,215)"/>
<path d="M0 0 C0.33 0 0.66 0 1 0 C1.144375 0.763125 1.28875 1.52625 1.4375 2.3125 C1.9632594 5.08172908 1.9632594 5.08172908 3 8 C2.0625 10.1875 2.0625 10.1875 1 12 C0.67 12 0.34 12 0 12 C0 8.04 0 4.08 0 0 Z " fill="#486ACE" transform="translate(163,143)"/>
<path d="M0 0 C2.475 0.495 2.475 0.495 5 1 C5.33 2.32 5.66 3.64 6 5 C4.02 4.34 2.04 3.68 0 3 C0 2.01 0 1.02 0 0 Z " fill="#091A43" transform="translate(198,88)"/>
<path d="M0 0 C-1 3 -1 3 -3.3125 4.25 C-6.09873015 5.0275526 -7.33438378 4.98726527 -10 4 C-8.35 3.67 -6.7 3.34 -5 3 C-5 2.34 -5 1.68 -5 1 C-2 0 -2 0 0 0 Z " fill="#202742" transform="translate(192,224)"/>
<path d="M0 0 C1.32 0 2.64 0 4 0 C4 1.98 4 3.96 4 6 C3.01 6 2.02 6 1 6 C0.67 4.02 0.34 2.04 0 0 Z " fill="#1C2642" transform="translate(17,183)"/>
<path d="M0 0 C1.98 0.66 3.96 1.32 6 2 C5.67 3.32 5.34 4.64 5 6 C4.34 6 3.68 6 3 6 C2.67 4.68 2.34 3.36 2 2 C1.34 2 0.68 2 0 2 C0 1.34 0 0.68 0 0 Z " fill="#061835" transform="translate(51,149)"/>
<path d="M0 0 C0.99 0.33 1.98 0.66 3 1 C2.01 1.495 2.01 1.495 1 2 C1.474375 2.45375 1.94875 2.9075 2.4375 3.375 C4 5 4 5 5 7 C4.01 7.33 3.02 7.66 2 8 C0.4375 6.25 0.4375 6.25 -1 4 C-0.6875 1.75 -0.6875 1.75 0 0 Z " fill="#3D57A8" transform="translate(41,136)"/>
<path d="M0 0 C1.32 1.32 2.64 2.64 4 4 C3.34 5.32 2.68 6.64 2 8 C1.34 7.67 0.68 7.34 0 7 C0 4.69 0 2.38 0 0 Z " fill="#17203E" transform="translate(224,40)"/>
<path d="M0 0 C0.33 0 0.66 0 1 0 C1 3.63 1 7.26 1 11 C0.01 10.34 -0.98 9.68 -2 9 C-1.34 6.03 -0.68 3.06 0 0 Z " fill="#0F265A" transform="translate(86,71)"/>
<path d="M0 0 C0.66 0.99 1.32 1.98 2 3 C0.625 5 0.625 5 -1 7 C-1.66 7 -2.32 7 -3 7 C-2.38722388 4.03824877 -1.74627478 2.61941217 0 0 Z " fill="#4A66B6" transform="translate(151,192)"/>
<path d="M0 0 C0.6875 1.8125 0.6875 1.8125 1 4 C-0.4375 5.75 -0.4375 5.75 -2 7 C-2.99 6.67 -3.98 6.34 -5 6 C-3.35 4.02 -1.7 2.04 0 0 Z " fill="#445EA9" transform="translate(104,34)"/>
</svg>
